<?xml version="1.0" standalone="no"?>
<!DOCTYPE svg PUBLIC "-//W3C//DTD SVG 20010904//EN"
 "http://www.w3.org/TR/2001/REC-SVG-20010904/DTD/svg10.dtd">
<svg version="1.0" xmlns="http://www.w3.org/2000/svg"
 width="128.000000pt" height="128.000000pt" viewBox="0 0 128.000000 128.000000"
 preserveAspectRatio="xMidYMid meet">
<metadata>
Created by potrace 1.14, written by Peter Selinger 2001-2017
</metadata>
<g transform="translate(0.000000,128.000000) scale(0.100000,-0.100000)"
fill="#000000" stroke="none">
<path d="M39 1246 c-1 0 -2 -235 -3 -520 l-2 -520 22 -25 c22 -25 24 -25 190
-27 206 -3 196 -2 191 -11 -3 -5 -1 -17 4 -28 l9 -20 -1 20 c-1 11 -1 25 0 30
1 12 281 12 301 0 7 -5 11 -4 8 1 -4 5 90 9 225 9 222 0 232 1 257 21 l25 22
-1 513 c-1 283 -2 519 -3 526 -1 9 -150 11 -611 11 -335 0 -611 -1 -611 -2z"/>
<path d="M388 133 c6 -2 10 -9 7 -14 -4 -5 1 -6 10 -2 13 5 14 7 3 14 -7 5
-17 8 -23 8 -5 0 -4 -3 3 -6z"/>
<path d="M466 131 c3 -4 11 -6 17 -6 7 0 11 -9 9 -19 -2 -10 1 -15 7 -12 19
12 8 42 -16 42 -12 0 -20 -2 -17 -5z"/>
<path d="M526 132 c-2 -4 -1 -14 4 -22 7 -11 9 -9 7 8 -1 24 -3 26 -11 14z"/>
<path d="M597 121 c-4 -17 -3 -21 5 -13 5 5 8 16 6 23 -3 8 -7 3 -11 -10z"/>
<path d="M660 120 c6 -11 12 -20 14 -20 2 0 2 9 -1 20 -3 11 -9 20 -15 20 -5
0 -4 -9 2 -20z"/>
<path d="M726 125 c6 -15 -12 -15 -36 0 -13 7 -13 6 -2 -7 7 -9 21 -15 30 -13
9 2 20 4 25 4 13 2 8 19 -7 24 -10 4 -13 1 -10 -8z"/>
<path d="M765 131 c-3 -5 0 -13 6 -17 8 -4 9 -3 5 4 -4 7 -2 12 3 12 10 0 15
-14 12 -32 0 -5 3 -8 8 -8 12 0 25 39 17 47 -3 4 -6 -2 -6 -13 -1 -18 -1 -18
-11 -1 -11 19 -25 22 -34 8z"/>
<path d="M833 125 c0 -8 4 -15 9 -15 4 0 8 4 8 9 0 6 -4 12 -8 15 -5 3 -9 -1
-9 -9z"/>
<path d="M878 127 c12 -7 19 -17 15 -22 -4 -6 2 -1 15 9 12 11 22 21 22 24 0
2 -6 0 -13 -6 -8 -7 -18 -7 -27 -2 -8 6 -19 10 -25 9 -5 0 0 -5 13 -12z"/>
<path d="M940 125 c-7 -9 -8 -15 -2 -15 5 0 12 7 16 15 3 8 4 15 2 15 -2 0 -9
-7 -16 -15z"/>
<path d="M990 131 c0 -6 4 -13 10 -16 6 -3 7 1 4 9 -7 18 -14 21 -14 7z"/>
<path d="M1056 127 c3 -10 9 -15 12 -12 3 3 0 11 -7 18 -10 9 -11 8 -5 -6z"/>
<path d="M344 114 c-18 -14 -18 -15 4 -4 12 6 22 13 22 15 0 8 -5 6 -26 -11z"/>
<path d="M562 115 c-7 -8 -9 -15 -4 -15 5 0 15 7 22 15 16 19 -1 19 -18 0z"/>
<path d="M970 121 c0 -6 4 -13 10 -16 6 -3 7 1 4 9 -7 18 -14 21 -14 7z"/>
<path d="M620 105 c-9 -10 -9 -15 -1 -15 6 0 11 5 11 11 0 8 5 7 15 -1 13 -11
14 -10 9 4 -8 20 -18 20 -34 1z"/>
<path d="M415 100 c3 -5 8 -10 11 -10 2 0 4 5 4 10 0 6 -5 10 -11 10 -5 0 -7
-4 -4 -10z"/>
</g>
</svg>
